# xmcd
#
# Track frame offsets: 
#        150
#        17475
#        35312
#        54562
#        81262
#        114807
#        137677
#        167665
#        188755
#        208310
#        234052
#
# Disc length: 3416 seconds
#
# Revision: 3
# Processed by: cddbd v1.5.2PL0 Copyright (c) Steve Scherf et al.
# Submitted via: ExactAudioCopy v1.0b4
#
DISCID=820d560b
DTITLE=Johnny B. Moore - Troubled World
DYEAR=1997
DGENRE=Blues
TTITLE0=Troubled World
TTITLE1=Keep It To Yourself
TTITLE2=Sittin' Here Thinkin'
TTITLE3=I'm Going Upside Your Head
TTITLE4=The Things That We Used To Do
TTITLE5=Why You Wanna Do Me Like That
TTITLE6=Stoop Down Baby
TTITLE7=Broke Your Promise
TTITLE8=Walking Through The Park
TTITLE9=Think Twice
TTITLE10=It's Too Late Brother
EXTD=
EXTT0=
EXTT1=
EXTT2=
EXTT3=
EXTT4=
EXTT5=
EXTT6=
EXTT7=
EXTT8=
EXTT9=
EXTT10=
PLAYORDER=
